<svg width="92" height="52" viewBox="0 0 760 425" fill="none" xmlns="http://www.w3.org/2000/svg">
<path fill-rule="evenodd" clip-rule="evenodd" d="M137.888 174.684C135.54 172.474 132.437 171.369 128.58 171.369C124.723 171.369 121.662 172.431 119.398 174.557C117.134 176.682 116.002 179.531 116.002 183.101V271.799C112.312 264.487 106.988 258.833 100.028 254.838C93.0678 250.842 84.9759 248.844 75.752 248.844C65.0187 248.844 55.5432 251.479 47.3255 256.75C39.1078 262.022 32.693 269.504 28.081 279.196C23.4691 288.888 21.1631 300.196 21.1631 313.119C21.1631 325.872 23.4691 337.18 28.081 347.042C32.693 356.905 39.1497 364.557 47.4513 369.998C55.7528 375.439 65.1864 378.16 75.752 378.16C84.9759 378.16 93.1097 376.162 100.153 372.166C107.197 368.17 112.564 362.431 116.253 354.949V365.152C116.253 369.063 117.385 372.123 119.65 374.334C121.914 376.544 124.974 377.65 128.832 377.65C132.689 377.65 135.749 376.544 138.014 374.334C140.278 372.123 141.41 369.063 141.41 365.152V183.612C141.41 179.871 140.236 176.895 137.888 174.684ZM107.197 346.277C101.16 353.929 92.6904 357.754 81.7894 357.754C70.8884 357.754 62.3353 353.801 56.1301 345.894C49.9249 337.987 46.8223 327.062 46.8223 313.119C46.8223 299.175 49.883 288.42 56.0043 280.853C62.1256 273.287 70.7207 269.503 81.7894 269.503C92.8581 269.503 101.369 273.329 107.323 280.981C113.277 288.633 116.253 299.515 116.253 313.629C116.253 327.742 113.235 338.625 107.197 346.277ZM201.501 377.649C197.812 377.649 194.751 376.629 192.319 374.589C189.887 372.548 188.672 369.487 188.672 365.406V237.939C188.672 233.858 189.887 230.755 192.319 228.63C194.751 226.504 197.812 225.441 201.501 225.441C205.191 225.441 208.21 226.504 210.557 228.63C212.905 230.755 214.079 233.858 214.079 237.939V365.406C214.079 369.487 212.905 372.548 210.557 374.589C208.21 376.629 205.191 377.649 201.501 377.649ZM362.972 249.354C366.83 249.354 369.89 250.501 372.154 252.797C374.418 255.093 375.551 258.111 375.551 261.852V366.427C375.551 385.471 370.561 399.84 360.583 409.532C350.604 419.225 335.888 424.071 316.433 424.071C298.321 424.071 283.227 420.585 271.152 413.613C264.947 410.042 261.845 405.791 261.845 400.86C261.845 397.969 262.641 395.589 264.234 393.718C265.828 391.848 267.798 390.913 270.146 390.913C272.326 390.913 275.764 392.188 280.46 394.739C286.498 397.629 292.116 399.882 297.315 401.498C302.514 403.113 308.719 403.921 315.93 403.921C339.074 403.921 350.646 392.103 350.646 368.467V348.828C347.124 356.309 341.757 362.133 334.546 366.299C327.335 370.465 318.949 372.548 309.39 372.548C298.656 372.548 289.097 369.998 280.712 364.897C272.326 359.795 265.828 352.569 261.216 343.216C256.604 333.864 254.298 323.066 254.298 310.823C254.298 298.581 256.646 287.783 261.341 278.431C266.037 269.078 272.536 261.809 280.837 256.623C289.139 251.437 298.656 248.844 309.39 248.844C318.781 248.844 327.041 250.884 334.169 254.965C341.296 259.046 346.705 264.827 350.394 272.309V261.597C350.394 257.856 351.526 254.88 353.79 252.669C356.054 250.459 359.115 249.354 362.972 249.354ZM315.427 352.142C326.328 352.142 334.881 348.486 341.087 341.175C347.292 333.863 350.394 323.745 350.394 310.822C350.394 298.069 347.334 287.994 341.212 280.598C335.091 273.201 326.496 269.502 315.427 269.502C304.359 269.502 295.68 273.158 289.391 280.47C283.102 287.782 279.957 297.899 279.957 310.822C279.957 323.745 283.143 333.863 289.516 341.175C295.889 348.486 304.526 352.142 315.427 352.142ZM431.712 377.649C428.022 377.649 424.962 376.628 422.53 374.588C420.098 372.547 418.882 369.487 418.882 365.406V253.88C418.882 249.799 420.098 246.696 422.53 244.57C424.962 242.445 428.022 241.382 431.712 241.382C435.401 241.382 438.42 242.445 440.768 244.57C443.116 246.696 444.29 249.799 444.29 253.88V365.406C444.29 369.487 443.116 372.547 440.768 374.588C438.42 376.628 435.401 377.649 431.712 377.649ZM555.669 360.943C554.075 359.328 551.434 358.35 547.745 358.01L540.701 357.5C533.992 356.989 529.003 354.864 525.733 351.123C522.463 347.382 520.827 341.516 520.827 333.524V271.799H545.732C549.254 271.799 551.979 270.949 553.908 269.248C555.836 267.548 556.801 265.082 556.801 261.852C556.801 258.791 555.836 256.368 553.908 254.582C551.979 252.797 549.254 251.904 545.732 251.904H520.827V229.618C520.827 225.707 519.653 222.646 517.306 220.436C514.958 218.225 511.855 217.12 507.998 217.12C504.14 217.12 501.08 218.225 498.816 220.436C496.552 222.646 495.42 225.707 495.42 229.618V251.904H480.326C476.804 251.904 474.079 252.797 472.15 254.582C470.222 256.368 469.257 258.791 469.257 261.852C469.257 268.483 472.947 271.799 480.326 271.799H495.42V331.738C495.42 346.192 498.774 357.117 505.482 364.514C512.19 371.911 522.337 376.119 535.921 377.139L542.713 377.649C547.745 377.99 551.56 377.267 554.159 375.481C556.759 373.696 558.059 371.103 558.059 367.702C558.059 364.811 557.262 362.558 555.669 360.943ZM676.136 261.342C668.17 253.01 656.053 248.844 639.785 248.844C632.406 248.844 624.775 249.821 616.893 251.777C609.011 253.732 602.135 256.325 596.265 259.556C593.079 261.427 590.773 263.34 589.347 265.295C587.922 267.251 587.209 269.504 587.209 272.054C587.209 274.945 588.005 277.325 589.599 279.196C591.192 281.066 593.246 282.002 595.762 282.002C597.607 282.002 600.793 280.726 605.321 278.176C611.527 275.285 617.229 273.074 622.428 271.544C627.626 270.014 633.161 269.249 639.031 269.249C647.584 269.249 653.789 271.374 657.646 275.625C661.503 279.876 663.432 286.763 663.432 296.285V303.682H657.646C639.031 303.682 624.398 304.787 613.749 306.998C603.099 309.208 595.469 312.907 590.857 318.093C586.245 323.279 583.939 330.378 583.939 339.39C583.939 346.702 585.825 353.334 589.599 359.285C593.372 365.237 598.613 369.87 605.321 373.186C612.03 376.502 619.409 378.16 627.459 378.16C635.844 378.16 643.181 376.247 649.47 372.421C655.759 368.595 660.497 363.111 663.684 355.969V365.407C663.684 369.148 664.774 372.123 666.954 374.334C669.134 376.544 672.069 377.65 675.759 377.65C679.616 377.65 682.635 376.587 684.815 374.461C686.995 372.336 688.085 369.318 688.085 365.407V299.346C688.085 282.342 684.102 269.674 676.136 261.342ZM654.627 349.465C648.757 355.841 641.211 359.03 631.987 359.03C625.446 359.03 619.996 357.074 615.635 353.163C611.275 349.252 609.095 344.236 609.095 338.115C609.095 332.843 610.604 328.805 613.623 325.999C616.641 323.193 621.673 321.196 628.716 320.005C635.76 318.815 645.823 318.22 658.904 318.22H663.432V324.851C663.432 334.884 660.497 343.088 654.627 349.465ZM738.24 374.59C740.672 376.63 743.733 377.651 747.422 377.651C751.112 377.651 754.131 376.63 756.478 374.59C758.826 372.549 760 369.489 760 365.408V207.78C760 203.699 758.826 200.595 756.478 198.47C754.131 196.344 751.112 195.282 747.422 195.282C743.733 195.282 740.672 196.344 738.24 198.47C735.808 200.595 734.593 203.699 734.593 207.78V365.408C734.593 369.489 735.808 372.549 738.24 374.59Z" fill="#302A2F"/>
<path fill-rule="evenodd" clip-rule="evenodd" d="M603.119 170.381C603.119 166.64 601.61 163.494 598.591 160.944L549.285 116.818L594.063 75.2431C596.914 72.5225 598.34 69.5468 598.34 66.316C598.34 63.0852 597.166 60.2795 594.818 57.899C592.47 55.5184 589.703 54.3281 586.516 54.3281C583.833 54.3281 581.066 55.6034 578.215 58.154L520.859 112.482V12.498C520.859 8.41703 519.685 5.31378 517.337 3.18827C514.989 1.06276 511.97 0 508.281 0C504.591 0 501.53 1.06276 499.099 3.18827C496.667 5.31378 495.451 8.41703 495.451 12.498V189.798C495.451 193.879 496.667 196.982 499.099 199.107C501.53 201.233 504.591 202.296 508.281 202.296C511.97 202.296 514.989 201.233 517.337 199.107C519.685 196.982 520.859 193.879 520.859 189.798V122.685L583.498 178.798C586.013 181.179 588.864 182.369 592.051 182.369C595.069 182.369 597.669 181.179 599.849 178.798C602.029 176.418 603.119 173.612 603.119 170.381ZM76.2232 32.8708C67.8378 33.5509 61.6326 36.2291 57.6076 40.9052C53.5826 45.5813 51.5701 52.4255 51.5701 61.4377V68.5794H76.4748C79.9966 68.5794 82.7219 69.4721 84.6505 71.2575C86.5792 73.043 87.5435 75.466 87.5435 78.5268C87.5435 81.5875 86.5792 84.0106 84.6505 85.796C82.7219 87.5815 79.9966 88.4742 76.4748 88.4742H51.5701V181.827C51.5701 185.908 50.3543 189.011 47.9225 191.136C45.4907 193.262 42.4301 194.325 38.7405 194.325C35.0509 194.325 32.0322 193.262 29.6843 191.136C27.3364 189.011 26.1624 185.908 26.1624 181.827V88.4742H11.0687C7.54685 88.4742 4.8216 87.5815 2.89296 85.796C0.96432 84.0106 0 81.5875 0 78.5268C0 75.466 0.96432 73.043 2.89296 71.2575C4.8216 69.4721 7.54685 68.5794 11.0687 68.5794H26.1624V65.2636C26.1624 49.6198 30.1036 37.3343 37.9858 28.4072C45.8681 19.48 57.0207 14.5063 71.4435 13.4861L77.9841 12.976C83.3508 12.6359 87.25 13.231 89.6817 14.7614C92.1135 16.2918 93.3294 18.7574 93.3294 22.1582C93.3294 28.1096 89.8075 31.5104 82.7638 32.3606L76.2232 32.8708ZM180.59 54.0729C188.64 53.5627 192.665 57.0486 192.665 64.5304C192.665 68.2713 191.743 71.077 189.898 72.9474C188.053 74.8179 184.867 75.9231 180.338 76.2632L172.792 77.0284C162.226 78.0486 154.386 81.7895 149.271 88.2511C144.155 94.7127 141.598 110.505 141.598 119.687V146.214C141.598 150.295 140.424 153.356 138.076 155.396C135.728 157.437 132.709 158.457 129.02 158.457C125.33 158.457 122.27 157.437 119.838 155.396C117.406 153.356 116.19 150.295 116.19 146.214V66.3158C116.19 62.4049 117.406 59.3866 119.838 57.2611C122.27 55.1356 125.33 54.0729 129.02 54.0729C132.374 54.0729 135.183 55.1356 137.447 57.2611C139.711 59.3866 140.843 62.3199 140.843 66.0608V78.3037C144.197 70.8219 149.061 65.1255 155.434 61.2146C161.807 57.3036 169.018 55.0081 177.068 54.3279L180.59 54.0729ZM313.635 149.72C315.982 149.72 317.911 150.655 319.42 152.526C320.93 154.396 321.685 156.777 321.685 159.667C321.685 164.598 318.666 168.764 312.628 172.165C306.759 175.566 300.344 178.202 293.384 180.072C286.424 181.943 279.758 182.878 273.385 182.878C253.931 182.878 238.585 177.139 227.349 165.661C216.112 154.183 210.494 138.497 210.494 118.602C210.494 105.849 212.968 94.5416 217.915 84.6792C222.863 74.8168 229.823 67.1649 238.795 61.7236C247.767 56.2823 257.956 53.5617 269.36 53.5617C285.795 53.5617 298.792 58.918 308.352 69.6305C317.911 80.3431 322.691 94.7966 322.691 112.991C322.691 119.793 319.672 123.193 313.635 123.193H235.902C237.579 149.55 250.073 162.728 273.385 162.728C279.59 162.728 284.957 161.878 289.485 160.177C294.013 158.477 298.792 156.266 303.824 153.546C304.327 153.206 305.71 152.483 307.974 151.378C310.238 150.273 312.125 149.72 313.635 149.72ZM269.863 72.4364C260.136 72.4364 252.337 75.5821 246.467 81.8736C240.598 88.1652 237.076 97.0073 235.902 108.4H300.805C300.302 96.8372 297.409 87.9526 292.126 81.7461C286.843 75.5396 279.422 72.4364 269.863 72.4364ZM405.172 182.879C388.066 182.879 374.062 179.309 363.161 172.167C360.142 170.296 358.004 168.341 356.746 166.3C355.488 164.26 354.859 161.964 354.859 159.414C354.859 156.693 355.614 154.398 357.123 152.527C358.633 150.657 360.561 149.721 362.909 149.721C365.09 149.721 368.528 151.082 373.223 153.802C378.255 156.523 383.16 158.734 387.94 160.434C392.719 162.134 398.715 162.985 405.926 162.985C413.976 162.985 420.265 161.539 424.794 158.649C429.322 155.758 431.586 151.677 431.586 146.406C431.586 143.005 430.705 140.284 428.944 138.244C427.183 136.203 424.123 134.375 419.762 132.76C415.402 131.145 408.945 129.402 400.392 127.531C385.634 124.3 375.026 119.922 368.569 114.395C362.113 108.869 358.884 101.345 358.884 91.8225C358.884 84.5107 360.981 77.9217 365.173 72.0552C369.366 66.1888 375.152 61.6402 382.531 58.4095C389.91 55.1787 398.296 53.5633 407.687 53.5633C414.396 53.5633 420.936 54.456 427.309 56.2414C433.682 58.0269 439.3 60.62 444.164 64.0208C449.698 67.7617 452.465 72.0978 452.465 77.0289C452.465 79.7496 451.669 82.0452 450.075 83.9156C448.482 85.7861 446.596 86.7213 444.415 86.7213C442.906 86.7213 441.397 86.3812 439.887 85.701C438.378 85.0209 436.365 83.9156 433.85 82.3852C429.322 79.6646 425.087 77.5391 421.146 76.0087C417.205 74.4783 412.299 73.7132 406.43 73.7132C399.386 73.7132 393.726 75.2435 389.449 78.3043C385.173 81.365 383.034 85.531 383.034 90.8023C383.034 95.5634 385.005 99.2618 388.946 101.897C392.887 104.533 400.308 107.041 411.209 109.422C422.446 111.802 431.25 114.523 437.623 117.584C443.996 120.644 448.566 124.428 451.333 128.934C454.1 133.44 455.484 139.179 455.484 146.151C455.484 157.203 450.914 166.088 441.774 172.805C432.634 179.521 420.433 182.879 405.172 182.879Z" fill="#120B11"/>
<path d="M640.853 182.369C636.325 182.369 632.51 180.838 629.407 177.778C626.305 174.717 624.753 170.806 624.753 166.045C624.753 161.284 626.305 157.33 629.407 154.184C632.51 151.039 636.325 149.466 640.853 149.466C645.381 149.466 649.155 151.039 652.174 154.184C655.192 157.33 656.702 161.284 656.702 166.045C656.702 170.806 655.192 174.717 652.174 177.778C649.155 180.838 645.381 182.369 640.853 182.369Z" fill="#302A2F"/>
</svg>
