<svg width="44" height="44" viewBox="0 0 44 44" fill="none" xmlns="http://www.w3.org/2000/svg">
<path d="M21.9542 41.9886C32.9747 41.9886 41.9085 33.0369 41.9085 21.9943C41.9085 10.9518 32.9747 2 21.9542 2C10.9338 2 2 10.9518 2 21.9943C2 33.0369 10.9338 41.9886 21.9542 41.9886Z" stroke="#0275FF" stroke-width="3" stroke-linecap="round" stroke-linejoin="round"/>
<path d="M22.1575 9.65625L6.43594 9.65625" stroke="#0275FF" stroke-width="3" stroke-linecap="round" stroke-linejoin="round"/>
<path d="M22.1575 34.332L6.43594 34.332" stroke="#0275FF" stroke-width="3" stroke-linecap="round" stroke-linejoin="round"/>
<path d="M22.1575 21.5703L2.00167 21.5703" stroke="#0275FF" stroke-width="3" stroke-linecap="round" stroke-linejoin="round"/>
<path d="M22.1575 16.041L3.21102 16.041" stroke="#0275FF" stroke-width="3" stroke-linecap="round" stroke-linejoin="round"/>
<path d="M22.1575 27.9492L3.21102 27.9492" stroke="#0275FF" stroke-width="3" stroke-linecap="round" stroke-linejoin="round"/>
<path d="M21.9542 41.9886C32.9747 41.9886 41.9085 33.0369 41.9085 21.9943C41.9085 10.9518 32.9747 2 21.9542 2C10.9338 2 2 10.9518 2 21.9943C2 33.0369 10.9338 41.9886 21.9542 41.9886Z" stroke="#0275FF" stroke-width="3" stroke-linecap="round" stroke-linejoin="round"/>
<path d="M22.1575 9.65625L6.43594 9.65625" stroke="#0275FF" stroke-width="3" stroke-linecap="round" stroke-linejoin="round"/>
<path d="M22.1575 34.332L6.43594 34.332" stroke="#0275FF" stroke-width="3" stroke-linecap="round" stroke-linejoin="round"/>
<path d="M22.1575 21.5703L2.00167 21.5703" stroke="#0275FF" stroke-width="3" stroke-linecap="round" stroke-linejoin="round"/>
<path d="M22.1575 16.041L3.21102 16.041" stroke="#0275FF" stroke-width="3" stroke-linecap="round" stroke-linejoin="round"/>
<path d="M22.1575 27.9492L3.21102 27.9492" stroke="#0275FF" stroke-width="3" stroke-linecap="round" stroke-linejoin="round"/>
</svg>
