<svg width="51" height="46" viewBox="0 0 51 46" fill="none" xmlns="http://www.w3.org/2000/svg">
<path d="M7.84167 33.1541V26.2311C7.84167 25.313 8.22097 24.4326 8.89608 23.7834C9.57122 23.1342 10.4869 22.7695 11.4417 22.7695H40.2417C41.1964 22.7695 42.1122 23.1342 42.7872 23.7834C43.4622 24.4326 43.8417 25.313 43.8417 26.2311V33.1541" stroke="#0275FF" stroke-width="3" stroke-linecap="round" stroke-linejoin="round"/>
<path d="M25.8406 12.3848V33.154" stroke="#0275FF" stroke-width="3" stroke-linecap="round" stroke-linejoin="round"/>
<path d="M20.4395 5.46154V8.92308C20.4395 10.8348 22.0512 12.3846 24.0395 12.3846H27.6395C29.6277 12.3846 31.2395 10.8348 31.2395 8.92308V5.46154C31.2395 3.5498 29.6277 2 27.6395 2H24.0395C22.0512 2 20.4395 3.5498 20.4395 5.46154Z" stroke="#0275FF" stroke-width="3" stroke-linecap="round" stroke-linejoin="round"/>
<path d="M20.4395 36.6158V40.0774C20.4395 41.9892 22.0512 43.5389 24.0395 43.5389H27.6395C29.6277 43.5389 31.2395 41.9892 31.2395 40.0774V36.6158C31.2395 34.704 29.6277 33.1543 27.6395 33.1543H24.0395C22.0512 33.1543 20.4395 34.704 20.4395 36.6158Z" stroke="#0275FF" stroke-width="3" stroke-linecap="round" stroke-linejoin="round"/>
<path d="M2.44055 36.6158V40.0774C2.44055 41.9892 4.05233 43.5389 6.04055 43.5389H9.64055C11.6288 43.5389 13.2406 41.9892 13.2406 40.0774V36.6158C13.2406 34.704 11.6288 33.1543 9.64055 33.1543H6.04055C4.05233 33.1543 2.44055 34.704 2.44055 36.6158Z" stroke="#0275FF" stroke-width="3" stroke-linecap="round" stroke-linejoin="round"/>
<path d="M38.4404 36.6158V40.0774C38.4404 41.9892 40.0521 43.5389 42.0404 43.5389H45.6404C47.6287 43.5389 49.2404 41.9892 49.2404 40.0774V36.6158C49.2404 34.704 47.6287 33.1543 45.6404 33.1543H42.0404C40.0521 33.1543 38.4404 34.704 38.4404 36.6158Z" stroke="#0275FF" stroke-width="3" stroke-linecap="round" stroke-linejoin="round"/>
</svg>
