<svg width="44" height="31" viewBox="0 0 44 31" fill="none" xmlns="http://www.w3.org/2000/svg">
<path d="M1.70264 6.5C1.70264 4.37868 1.70264 3.31803 2.36343 2.659C3.02424 2 4.08777 2 6.21485 2H30.8732C32.0554 2 32.6465 2 33.1453 2.26624C33.6442 2.53246 33.972 3.02292 34.6276 4.00385L40.644 13.0039C41.4528 14.2137 41.8571 14.8187 41.8571 15.5C41.8571 16.1813 41.4528 16.7863 40.644 17.9961L34.6276 26.9961C33.972 27.9771 33.6442 28.4674 33.1453 28.7338C32.6465 29 32.0554 29 30.8732 29H6.21485C4.08777 29 3.02424 29 2.36343 28.341C1.70264 27.6819 1.70264 26.6213 1.70264 24.5V6.5Z" stroke="#0275FF" stroke-width="3"/>
<path d="M28.3051 18C29.6911 18 30.8147 16.8807 30.8147 15.5C30.8147 14.1193 29.6911 13 28.3051 13C26.919 13 25.7954 14.1193 25.7954 15.5C25.7954 16.8807 26.919 18 28.3051 18Z" fill="#0275FF" stroke="#0275FF" stroke-width="3"/>
</svg>
