<svg width="45" height="44" viewBox="0 0 45 44" fill="none" xmlns="http://www.w3.org/2000/svg">
<path d="M5.17369 41.9884H40.0842C41.8371 41.9884 43.2579 40.6113 43.2579 38.9124V5.07603C43.2579 3.37719 41.8371 2 40.0842 2H5.17369C3.42091 2 2 3.37719 2 5.07603V38.9124C2 40.6113 3.42091 41.9884 5.17369 41.9884Z" stroke="#0275FF" stroke-width="3" stroke-linecap="round" stroke-linejoin="round"/>
<path d="M5.96777 41.9882L29.1357 20.825C29.4208 20.5948 29.7802 20.4688 30.1513 20.4688C30.5223 20.4688 30.8817 20.5948 31.1668 20.825L43.2586 29.2226" stroke="#0275FF" stroke-width="3" stroke-linecap="round" stroke-linejoin="round"/>
<path d="M14.6961 18.9195C17.3253 18.9195 19.4566 16.8537 19.4566 14.3055C19.4566 11.7572 17.3253 9.69141 14.6961 9.69141C12.0669 9.69141 9.93555 11.7572 9.93555 14.3055C9.93555 16.8537 12.0669 18.9195 14.6961 18.9195Z" stroke="#0275FF" stroke-width="3" stroke-linecap="round" stroke-linejoin="round"/>
</svg>
